<svg width="118" height="76" viewBox="0 0 118 76" fill="none" xmlns="http://www.w3.org/2000/svg">
<path d="M88.2248 50.275C75.6498 37 49.7498 9.70004 49.7498 9.70004L46.6748 7.35004C39.1748 1.60004 28.3748 3.45004 23.1498 11.325H15.7998V56.525H23.1748L35.1748 69.85C37.1498 72.05 40.3748 72.6 42.9748 71.175C46.5998 69.2 47.4248 64.325 44.6498 61.25L51.2998 68.75C53.0498 70.7 55.8498 71.325 58.2498 70.3L58.3998 70.225C62.3748 68.5 63.5248 63.425 60.6748 60.175L64.6998 64.525C66.6748 66.725 69.8748 67.325 72.4998 65.95L72.6498 65.875C76.5998 63.825 77.4998 58.6 74.5248 55.35C74.5248 55.35 72.9748 53.4 78.7248 59.525C80.5248 61.45 83.2998 62.05 85.7498 61.075L85.9248 61C90.2498 59.275 91.4498 53.675 88.2248 50.275Z" fill="white"/>
<path d="M42.9498 62.0751L36.2498 54.6251C32.8748 50.9001 29.6498 48.7501 24.6248 48.7501V11.3501H15.7998V56.5501H23.1748L35.1748 69.8751C37.1498 72.0751 40.3748 72.6251 42.9748 71.2001C45.6498 69.7251 46.7998 66.7001 46.0998 63.9751C44.8998 63.6751 43.7998 63.0501 42.9498 62.0751Z" fill="#E6E7E8"/>
<path d="M39.8998 76C37.0498 76 34.2248 74.8 32.1998 72.55L21.3998 60.55H15.7998C13.5998 60.55 11.7998 58.75 11.7998 56.55V11.35C11.7998 9.15004 13.5998 7.35004 15.7998 7.35004H21.1748C24.2498 3.65004 28.5998 1.10004 33.3998 0.300036C38.9248 -0.649964 44.6498 0.775038 49.1248 4.20004C50.8748 5.55004 51.2248 8.05004 49.8748 9.80004C48.5248 11.55 46.0248 11.9 44.2748 10.55C41.5248 8.45004 38.1498 7.62504 34.7498 8.20004C31.3498 8.77504 28.4248 10.675 26.5248 13.575C25.7748 14.7 24.5248 15.375 23.1748 15.375H19.7998V52.575H23.1748C24.2998 52.575 25.3998 53.05 26.1498 53.9L38.1498 67.225C38.8998 68.05 40.0748 68.25 41.0498 67.725C41.9248 67.25 42.1998 66.45 42.2748 66.025C42.3498 65.6 42.3748 64.8 41.7248 64.075L41.6498 63.975C40.1998 62.325 40.3248 59.825 41.9748 58.35C43.5998 56.875 46.1248 57 47.5998 58.625C47.6498 58.675 47.6998 58.725 47.7498 58.8L54.2998 66.175C54.8998 66.85 55.8498 67.05 56.6748 66.7L56.8248 66.625C57.7998 66.2 58.0998 65.4 58.1998 64.95C58.2998 64.5 58.3498 63.65 57.6748 62.875C56.2248 61.225 56.3748 58.725 57.9998 57.275C59.6248 55.8 62.1248 55.925 63.6248 57.525L67.6498 61.875L67.6998 61.925C68.4498 62.775 69.6748 63 70.6748 62.475L70.8248 62.4C71.8748 61.85 72.1748 60.925 72.2748 60.45C72.3498 59.95 72.3998 59 71.5998 58.15C71.5248 58.075 71.4748 58 71.3998 57.925C69.3498 55.325 70.7248 53 71.7498 52.125C73.0498 51.025 75.2998 50.6 77.2248 52.325C77.4248 52.5 77.6998 52.775 78.0498 53.125C78.7998 53.9 80.0248 55.175 81.6498 56.9C82.3248 57.625 83.3248 57.85 84.2248 57.475L84.3998 57.4C86.4498 56.575 88.7748 57.55 89.5998 59.6C90.4248 61.65 89.4498 63.975 87.3998 64.8L87.2248 64.875C84.5998 65.95 81.6748 65.85 79.1748 64.75C78.1748 66.775 76.5748 68.425 74.4998 69.5L74.3498 69.575C71.3248 71.15 67.7998 71.125 64.8498 69.65C63.7498 71.55 62.0748 73.05 59.9748 73.95L59.8248 74.025C55.8748 75.725 51.3248 74.75 48.3998 71.6C47.4998 72.9 46.2998 73.975 44.8748 74.75C43.2998 75.575 41.5998 76 39.8998 76Z" fill="#3E4D6C"/>
<path d="M16.775 64.475H4C2.075 64.475 0.5 62.9 0.5 60.975V6.39996C0.5 4.47496 2.075 2.89996 4 2.89996H16.775C18.7 2.89996 20.275 4.47496 20.275 6.39996V60.95C20.275 62.9 18.725 64.475 16.775 64.475ZM55.425 26.175L60.675 21.575L90.95 56.55H100.25V12.225H78.25L73 6.09995C67.1 -0.775046 56.725 -1.50004 49.925 4.47496L32.65 20.225C30.35 22.325 30.65 26.025 33.275 27.725C40.2 32.25 49.225 31.6 55.425 26.175Z" fill="#0795FE"/>
<path d="M113.488 60.7145H98.1631V7.31445H113.488V60.7145Z" fill="white"/>
<path d="M113.5 64.7H98.1748C95.9748 64.7 94.1748 62.9 94.1748 60.7V7.30005C94.1748 5.10005 95.9748 3.30005 98.1748 3.30005H113.5C115.7 3.30005 117.5 5.10005 117.5 7.30005V60.7C117.5 62.925 115.7 64.7 113.5 64.7ZM102.175 56.7H109.5V11.3H102.175V56.7Z" fill="#3E4D6C"/>
</svg>
