<?xml version="1.0" encoding="UTF-8"?>
<svg version="1.1" xmlns="http://www.w3.org/2000/svg" width="400" height="150">
<path d="M0 0 C0.820093 0.52665504 0.820093 0.52665504 1.65675354 1.06394958 C2.37532028 1.52036331 3.09388702 1.97677704 3.83422852 2.44702148 C4.90182152 3.12836403 4.90182152 3.12836403 5.99098206 3.82347107 C9.8521897 6.08468656 13.60325493 6.36639542 18 6 C22.44566657 4.64160188 26.14660353 2.56893098 30 0 C30 23.1 30 46.2 30 70 C37.26 70 44.52 70 52 70 C60.80421481 73.91298436 65.38061966 76.19780272 69.875 84.4375 C71.11530257 88.36512482 71.53529844 91.91485085 72 96 C64.63528035 96.1274123 57.2708479 96.21460754 49.90527344 96.2746582 C47.40288674 96.29970793 44.90057252 96.33375742 42.3984375 96.37719727 C38.78887993 96.43826661 35.18029481 96.46630674 31.5703125 96.48828125 C30.46261505 96.51408768 29.3549176 96.5398941 28.21365356 96.56648254 C20.02202418 96.5694001 13.29336419 94.87344823 7.08621216 89.27339172 C1.38400414 83.33848831 -0.46808946 76.17678882 -0.34057617 68.11523438 C-0.34123329 67.00157501 -0.34123329 67.00157501 -0.34190369 65.86541748 C-0.33983405 63.44124921 -0.31659111 61.01779559 -0.29296875 58.59375 C-0.28736627 56.90124896 -0.28309925 55.20874302 -0.28010559 53.51623535 C-0.26870812 49.08400801 -0.23928546 44.65208045 -0.20599365 40.2199707 C-0.17518225 35.68835504 -0.1615767 31.15669045 -0.14648438 26.625 C-0.11441035 17.74986904 -0.06327641 8.87495955 0 0 Z " fill="#7D40BC" transform="translate(40,41)"/>
<path d="M0 0 C4.00410788 1.33470263 4.70666202 3.55999303 7 7 C7.99 7.33 8.98 7.66 10 8 C10 8.66 10 9.32 10 10 C10.680625 10.12375 11.36125 10.2475 12.0625 10.375 C15 11 15 11 17.78515625 12.015625 C24.93622824 14.08396967 32.86776361 13.36082935 40.2421875 13.390625 C48.88388893 13.5513178 55.2552316 14.54999044 62.3046875 19.67578125 C68.26045848 25.88341319 70.04657779 31.61855204 71 40 C63.63528035 40.1274123 56.2708479 40.21460754 48.90527344 40.2746582 C46.40288674 40.29970793 43.90057252 40.33375742 41.3984375 40.37719727 C37.78887993 40.43826661 34.18029481 40.46630674 30.5703125 40.48828125 C29.46261505 40.51408768 28.3549176 40.5398941 27.21365356 40.56648254 C19.02202418 40.5694001 12.29336419 38.87344823 6.08621216 33.27339172 C0.42483423 27.38098459 -1.36222319 20.56615353 -1.3125 12.59179688 C-1.291875 11.75712891 -1.27125 10.92246094 -1.25 10.0625 C-1.24484375 9.20076172 -1.2396875 8.33902344 -1.234375 7.45117188 C-1.15499052 1.15499052 -1.15499052 1.15499052 0 0 Z " fill="#6220A6" transform="translate(41,97)"/>
<path d="M0 0 C7 0 7 0 9.73046875 2.23046875 C10.54128906 3.20628906 11.35210937 4.18210937 12.1875 5.1875 C13.00605469 6.15042969 13.82460937 7.11335938 14.66796875 8.10546875 C16.78437926 10.73237023 18.89265583 13.36581979 21 16 C21.33 10.72 21.66 5.44 22 0 C24.97 0 27.94 0 31 0 C31 11.22 31 22.44 31 34 C23 34 23 34 20.42578125 31.8046875 C19.72839844 30.83789062 19.03101562 29.87109375 18.3125 28.875 C17.60738281 27.92367187 16.90226562 26.97234375 16.17578125 25.9921875 C15.45777344 25.00476563 14.73976563 24.01734375 14 23 C12.35 21.02 10.7 19.04 9 17 C8.67 22.61 8.34 28.22 8 34 C5.36 34 2.72 34 0 34 C0 22.78 0 11.56 0 0 Z " fill="#521C82" transform="translate(107,42)"/>
<path d="M0 0 C3.7924669 3.25480071 6.05828831 7.10309924 7 12 C7.17084778 18.06007117 6.24996565 22.61961198 2.64453125 27.52734375 C-2.88387735 32.47796143 -8.57550356 32.52252415 -15.64453125 32.34375 C-20.81783438 31.8137725 -23.86534885 30.60242964 -27.265625 26.45703125 C-30.80850615 21.00548525 -31.48916149 15.62368437 -30.3125 9.3125 C-28.132917 3.81164768 -25.2891618 0.6445809 -20 -2 C-13.47290927 -4.47579304 -5.95727651 -3.40598036 0 0 Z M-20 8 C-21.85187561 11.0303419 -22 12.93203901 -22 16.5 C-20.69568867 21.06508964 -18.99580306 22.51204715 -15 25 C-11.8307337 25.66026381 -10.09007869 25.69114546 -7.32421875 23.9375 C-3.96943054 21.24726411 -2.17520672 19.54181917 -1.6875 15.25 C-2.07779027 11.19098115 -3.49587378 9.16698316 -6 6 C-10.89460208 3.55269896 -15.91923196 4.61879219 -20 8 Z " fill="#521C82" transform="translate(218,44)"/>
<path d="M0 0 C3.75317323 1.59709499 6.31940288 3.93646044 9 7 C10.62141925 11.86425774 10.95779193 17.19429429 9.28125 22.10546875 C7.18968491 26.06088821 4.95291306 28.06318586 1 30 C-4.54808604 30.82885269 -9.47140883 30.7240695 -14.5625 28.3125 C-19.12514726 23.98383465 -20.6736149 20.31011185 -21 14 C-20.03973334 8.43045339 -18.27940772 5.65315293 -14 2 C-9.53898724 -0.97400851 -5.23204953 -0.49938799 0 0 Z M-9 7 C-9 7.66 -9 8.32 -9 9 C-5.71303767 9.79953138 -4.28976808 10.09658936 -1 9 C-1 8.34 -1 7.68 -1 7 C-5.10223585 5.98459888 -5.10223585 5.98459888 -9 7 Z M-11 9 C-11 10.65 -11 12.3 -11 14 C-9.68 13.01 -8.36 12.02 -7 11 C-8.32 10.34 -9.64 9.68 -11 9 Z M0 9 C0 10.65 0 12.3 0 14 C0.33 14 0.66 14 1 14 C1 12.35 1 10.7 1 9 C0.67 9 0.34 9 0 9 Z M-3 10 C-2.67 10.99 -2.34 11.98 -2 13 C-1.67 12.01 -1.34 11.02 -1 10 C-1.66 10 -2.32 10 -3 10 Z " fill="#59169F" transform="translate(60,13)"/>
<path d="M0 0 C8.91 0 17.82 0 27 0 C27 2.31 27 4.62 27 7 C21.06 7 15.12 7 9 7 C9 8.98 9 10.96 9 13 C13.95 13 18.9 13 24 13 C24 15.31 24 17.62 24 20 C19.05 20 14.1 20 9 20 C9 22.31 9 24.62 9 27 C14.94 27 20.88 27 27 27 C27 29.31 27 31.62 27 34 C18.09 34 9.18 34 0 34 C0 22.78 0 11.56 0 0 Z " fill="#521C82" transform="translate(333,42)"/>
<path d="M0 0 C8.58 0 17.16 0 26 0 C26 2.31 26 4.62 26 7 C20.39 7 14.78 7 9 7 C9 9.64 9 12.28 9 15 C13.95 15 18.9 15 24 15 C24 17.31 24 19.62 24 22 C19.05 22 14.1 22 9 22 C9 25.96 9 29.92 9 34 C6.03 34 3.06 34 0 34 C0 22.78 0 11.56 0 0 Z " fill="#521C82" transform="translate(296,42)"/>
<path d="M0 0 C8.58 0 17.16 0 26 0 C26 2.31 26 4.62 26 7 C20.39 7 14.78 7 9 7 C9 9.64 9 12.28 9 15 C13.95 15 18.9 15 24 15 C24 17.31 24 19.62 24 22 C19.05 22 14.1 22 9 22 C9 25.96 9 29.92 9 34 C6.03 34 3.06 34 0 34 C0 22.78 0 11.56 0 0 Z " fill="#521C82" transform="translate(152,42)"/>
<path d="M0 0 C2.97 0 5.94 0 9 0 C9 8.91 9 17.82 9 27 C14.28 27 19.56 27 25 27 C25 29.31 25 31.62 25 34 C16.75 34 8.5 34 0 34 C0 22.78 0 11.56 0 0 Z " fill="#521C82" transform="translate(237,42)"/>
<path d="M0 0 C2.97 0 5.94 0 9 0 C9 11.22 9 22.44 9 34 C6.03 34 3.06 34 0 34 C0 22.78 0 11.56 0 0 Z " fill="#521C82" transform="translate(273,42)"/>
<path d="M0 0 C2.64 0 5.28 0 8 0 C8 11.22 8 22.44 8 34 C5.36 34 2.72 34 0 34 C0 22.78 0 11.56 0 0 Z " fill="#521C82" transform="translate(84,42)"/>
<path d="M0 0 C2.9375 1.25 2.9375 1.25 5 3 C5.7425 3.556875 6.485 4.11375 7.25 4.6875 C9.79161634 8.04606444 9.72197868 10.82968017 10 15 C4.555 14.505 4.555 14.505 -1 14 C-1 12.68 -1 11.36 -1 10 C-1.66 10 -2.32 10 -3 10 C-3.33 10.66 -3.66 11.32 -4 12 C-4 11.01 -4 10.02 -4 9 C-3.01 9 -2.02 9 -1 9 C-1 8.34 -1 7.68 -1 7 C-3.64 7 -6.28 7 -9 7 C-9 7.66 -9 8.32 -9 9 C-8.34 9 -7.68 9 -7 9 C-7.33 9.66 -7.66 10.32 -8 11 C-8.99 10.34 -9.98 9.68 -11 9 C-11 8.01 -11 7.02 -11 6 C-11.99 6 -12.98 6 -14 6 C-13.625 3.5625 -13.625 3.5625 -13 1 C-9.07754544 -0.96122728 -4.28630347 -0.34787391 0 0 Z " fill="#9056CC" transform="translate(60,13)"/>
<path d="M0 0 C3 1 3 1 4.6875 3.875 C6 7 6 7 6 10 C6.66 10 7.32 10 8 10 C8.28875 9.0925 8.5775 8.185 8.875 7.25 C9.76531776 4.67797092 10.71494413 2.38653234 12 0 C12.99 0 13.98 0 15 0 C15 4.95 15 9.9 15 15 C14.01 15 13.02 15 12 15 C11.67 13.35 11.34 11.7 11 10 C10.54625 10.825 10.0925 11.65 9.625 12.5 C9.08875 13.325 8.5525 14.15 8 15 C7.34 15 6.68 15 6 15 C5.01 13.02 4.02 11.04 3 9 C2.67 10.98 2.34 12.96 2 15 C1.34 15 0.68 15 0 15 C0 10.05 0 5.1 0 0 Z " fill="#161616" transform="translate(260,91)"/>
<path d="M0 0 C2.4375 1.5625 2.4375 1.5625 4 4 C4.56288002 7.94016013 4.60396028 10.05782196 2.4375 13.4375 C-0.94217804 15.60396028 -3.05983987 15.56288002 -7 15 C-9.4375 13.4375 -9.4375 13.4375 -11 11 C-11.56288002 7.05983987 -11.60396028 4.94217804 -9.4375 1.5625 C-6.05782196 -0.60396028 -3.94016013 -0.56288002 0 0 Z M-7.25 3.6875 C-9.27558577 5.86576328 -9.27558577 5.86576328 -8.9375 8.625 C-8.13344454 11.32289761 -8.13344454 11.32289761 -5 13 C-2.03923709 12.64111965 -1.15341979 12.15341979 1 10 C1.37447615 7.07908607 1.4374512 5.60409928 -0.3125 3.1875 C-3.14088491 1.19715506 -4.58381831 1.68786373 -7.25 3.6875 Z " fill="#161616" transform="translate(110,91)"/>
<path d="M0 0 C0.99 0 1.98 0 3 0 C3.33 3.63 3.66 7.26 4 11 C5.65 11.33 7.3 11.66 9 12 C9 8.04 9 4.08 9 0 C9.99 0 10.98 0 12 0 C12.08107583 1.93681161 12.13922475 3.8745934 12.1875 5.8125 C12.22230469 6.89144531 12.25710937 7.97039062 12.29296875 9.08203125 C12 12 12 12 10.67578125 13.859375 C8.03695662 15.65549806 6.09517555 15.45137977 3 15 C0.7229644 12.73357995 0.04402291 11.42027204 -0.29296875 8.203125 C-0.25816406 7.22859375 -0.22335938 6.2540625 -0.1875 5.25 C-0.16042969 4.26515625 -0.13335937 3.2803125 -0.10546875 2.265625 C-0.07066406 1.51796875 -0.03585938 0.7703125 0 0 Z " fill="#161616" transform="translate(118,91)"/>
<path d="M0 0 C0.99 0 1.98 0 3 0 C3.83986084 1.93467942 4.67168027 3.87285129 5.5 5.8125 C5.9640625 6.89144531 6.428125 7.97039062 6.90625 9.08203125 C8 12 8 12 8 15 C7.01 14.67 6.02 14.34 5 14 C5 13.34 5 12.68 5 12 C2.02934491 12.34227572 2.02934491 12.34227572 -1 13 C-1.33 13.66 -1.66 14.32 -2 15 C-2.99 15 -3.98 15 -5 15 C-1.92482916 4.44191344 -1.92482916 4.44191344 0 0 Z M1 5 C0.67 6.32 0.34 7.64 0 9 C0.99 9 1.98 9 3 9 C2.34 7.68 1.68 6.36 1 5 Z " fill="#161616" transform="translate(180,91)"/>
<path d="M0 0 C0.99 0 1.98 0 3 0 C3.83986084 1.93467942 4.67168027 3.87285129 5.5 5.8125 C5.9640625 6.89144531 6.428125 7.97039062 6.90625 9.08203125 C8 12 8 12 8 15 C7.01 15 6.02 15 5 15 C5 14.01 5 13.02 5 12 C2.69 12 0.38 12 -2 12 C-2 12.99 -2 13.98 -2 15 C-2.99 15 -3.98 15 -5 15 C-1.92482916 4.44191344 -1.92482916 4.44191344 0 0 Z M1 5 C0.67 6.32 0.34 7.64 0 9 C0.99 9 1.98 9 3 9 C2.34 7.68 1.68 6.36 1 5 Z " fill="#161616" transform="translate(210,91)"/>
<path d="M0 0 C7.25536993 -0.3627685 7.25536993 -0.3627685 10.4375 1.1875 C12.44619548 3.51758675 12.85384384 4.93072068 13 8 C11.93600927 11.81263347 11.3748349 12.75011007 8 15 C5.95703125 15.1953125 5.95703125 15.1953125 3.8125 15.125 C1.9253125 15.063125 1.9253125 15.063125 0 15 C0 10.05 0 5.1 0 0 Z M2 2 C2 5.63 2 9.26 2 13 C6.47883696 12.55296014 6.47883696 12.55296014 10 10 C10.50014953 7.54258463 10.50014953 7.54258463 10 5 C8.32683688 3.07845307 8.32683688 3.07845307 6 2 C4.68 2 3.36 2 2 2 Z " fill="#161616" transform="translate(159,91)"/>
<path d="M0 0 C7.05882353 -0.35294118 7.05882353 -0.35294118 10.5 0.9375 C12.63504394 3.87318541 12.5604356 6.33850329 12.375 9.90234375 C12 12 12 12 10.5 14.0625 C6.88098213 15.4196317 3.85495364 15.19274768 0 15 C0 10.05 0 5.1 0 0 Z M2 2 C2 5.63 2 9.26 2 13 C6.47883696 12.55296014 6.47883696 12.55296014 10 10 C10.50014953 7.54258463 10.50014953 7.54258463 10 5 C8.32683688 3.07845307 8.32683688 3.07845307 6 2 C4.68 2 3.36 2 2 2 Z " fill="#161616" transform="translate(348,91)"/>
<path d="M0 0 C6.0546875 -0.1953125 6.0546875 -0.1953125 8 0 C10 2 10 2 10.1875 4.375 C10 7 10 7 9.4375 9.0625 C8.91957523 11.35616685 9.2883622 12.78601575 10 15 C9.01 15 8.02 15 7 15 C5.95107762 13.36368108 4.95093297 11.69514137 4 10 C3.34 9.67 2.68 9.34 2 9 C2 10.98 2 12.96 2 15 C1.34 15 0.68 15 0 15 C0 10.05 0 5.1 0 0 Z M2 2 C2 3.65 2 5.3 2 7 C3.65 7 5.3 7 7 7 C7.33 6.01 7.66 5.02 8 4 C7.34 3.34 6.68 2.68 6 2 C4.68 2 3.36 2 2 2 Z " fill="#161616" transform="translate(135,91)"/>
<path d="M0 0 C0.94875 0.04125 1.8975 0.0825 2.875 0.125 C3.535 1.445 4.195 2.765 4.875 4.125 C1.905 3.63 1.905 3.63 -1.125 3.125 C-1.125 3.785 -1.125 4.445 -1.125 5.125 C0.855 6.115 2.835 7.105 4.875 8.125 C5 10.5 5 10.5 4.875 13.125 C2.875 15.125 2.875 15.125 -0.125 15.375 C-3.125 15.125 -3.125 15.125 -5.125 13.125 C-5.125 12.135 -5.125 11.145 -5.125 10.125 C-3.145 10.785 -1.165 11.445 0.875 12.125 C1.205 11.465 1.535 10.805 1.875 10.125 C0.4209375 9.5371875 0.4209375 9.5371875 -1.0625 8.9375 C-4.125 7.125 -4.125 7.125 -5.125 4.5625 C-5.125 0.6090982 -3.77407543 0.15096302 0 0 Z " fill="#161616" transform="translate(242.125,90.875)"/>
<path d="M0 0 C2.97 0 5.94 0 9 0 C9 0.66 9 1.32 9 2 C7.02 2 5.04 2 3 2 C3 3.32 3 4.64 3 6 C4.65 6 6.3 6 8 6 C8 6.99 8 7.98 8 9 C6.35 9 4.7 9 3 9 C3 10.32 3 11.64 3 13 C4.98 13 6.96 13 9 13 C9 13.66 9 14.32 9 15 C6.03 15 3.06 15 0 15 C0 10.05 0 5.1 0 0 Z " fill="#161616" transform="translate(334,91)"/>
<path d="M0 0 C6.0546875 -0.1953125 6.0546875 -0.1953125 8 0 C10 2 10 2 10.25 4.5 C10 7 10 7 8 9 C4.875 9.125 4.875 9.125 2 9 C2 10.98 2 12.96 2 15 C1.34 15 0.68 15 0 15 C0 10.05 0 5.1 0 0 Z M2 2 C2 3.65 2 5.3 2 7 C3.65 6.67 5.3 6.34 7 6 C6.67 4.68 6.34 3.36 6 2 C4.68 2 3.36 2 2 2 Z " fill="#161616" transform="translate(280,91)"/>
<path d="M0 0 C4.89546302 0.02175761 8.80244681 0.23344421 12.5 3.6875 C15.04742895 6.59382087 15.81422823 9.09879273 16 13 C15.62875 12.54625 15.2575 12.0925 14.875 11.625 C12.45735315 9.52970606 10.04569398 8.87986715 7 8 C7 7.34 7 6.68 7 6 C6.34 6 5.68 6 5 6 C5 5.34 5 4.68 5 4 C4.01 4 3.02 4 2 4 C1.34 2.68 0.68 1.36 0 0 Z " fill="#AA75E1" transform="translate(54,13)"/>
<path d="M0 0 C2.46800047 1.15173355 4.04783565 2.04783565 6 4 C6.45375 3.34 6.9075 2.68 7.375 2 C7.91125 1.34 8.4475 0.68 9 0 C9.66 0 10.32 0 11 0 C10.45276317 3.37462715 9.9451 5.08235 8 8 C7.60612212 10.32387947 7.26513915 12.65793749 7 15 C6.01 15 5.02 15 4 15 C3.87882812 14.38511719 3.75765625 13.77023438 3.6328125 13.13671875 C3.46523437 12.32847656 3.29765625 11.52023438 3.125 10.6875 C2.96257812 9.88699219 2.80015625 9.08648437 2.6328125 8.26171875 C2.05521001 5.74698882 2.05521001 5.74698882 0 3 C0 2.01 0 1.02 0 0 Z " fill="#161616" transform="translate(84,91)"/>
<path d="M0 0 C3.63 0 7.26 0 11 0 C11 0.66 11 1.32 11 2 C9.68 2 8.36 2 7 2 C7 6.29 7 10.58 7 15 C6.01 15 5.02 15 4 15 C4 10.71 4 6.42 4 2 C2.68 2 1.36 2 0 2 C0 1.34 0 0.68 0 0 Z " fill="#161616" transform="translate(191,91)"/>
<path d="M0 0 C2.64 0 5.28 0 8 0 C8 0.66 8 1.32 8 2 C6.02 2 4.04 2 2 2 C2 3.32 2 4.64 2 6 C3.65 6 5.3 6 7 6 C7 6.99 7 7.98 7 9 C5.35 9 3.7 9 2 9 C2 10.98 2 12.96 2 15 C1.34 15 0.68 15 0 15 C0 10.05 0 5.1 0 0 Z " fill="#161616" transform="translate(314,91)"/>
<path d="M0 0 C0.99 0 1.98 0 3 0 C3 4.29 3 8.58 3 13 C4.65 13 6.3 13 8 13 C8 13.66 8 14.32 8 15 C5.36 15 2.72 15 0 15 C0 10.05 0 5.1 0 0 Z " fill="#161616" transform="translate(294,91)"/>
<path d="M0 0 C4.455 0.99 4.455 0.99 9 2 C8.01 3.485 8.01 3.485 7 5 C6.34 5 5.68 5 5 5 C5 5.66 5 6.32 5 7 C5.66 7 6.32 7 7 7 C6.67 7.66 6.34 8.32 6 9 C5.01 8.34 4.02 7.68 3 7 C3 6.01 3 5.02 3 4 C2.01 4 1.02 4 0 4 C0 2.68 0 1.36 0 0 Z " fill="#793BB9" transform="translate(46,15)"/>
<path d="M0 0 C0.66 0 1.32 0 2 0 C2 4.95 2 9.9 2 15 C1.34 15 0.68 15 0 15 C0 10.05 0 5.1 0 0 Z " fill="#161616" transform="translate(327,91)"/>
<path d="M0 0 C0.66 0 1.32 0 2 0 C2 4.95 2 9.9 2 15 C1.34 15 0.68 15 0 15 C0 10.05 0 5.1 0 0 Z " fill="#161616" transform="translate(306,91)"/>
<path d="M0 0 C0.66 0 1.32 0 2 0 C2 4.95 2 9.9 2 15 C1.34 15 0.68 15 0 15 C0 10.05 0 5.1 0 0 Z " fill="#161616" transform="translate(252,91)"/>
<path d="M0 0 C3.23238414 0.07696153 5.33227795 0.37438655 7.734375 2.625 C9.21851673 4.37770071 10.63844334 6.15079362 12 8 C5.85169289 6.79444959 3.64751781 5.08441876 0 0 Z " fill="#B886ED" transform="translate(57,13)"/>
<path d="M0 0 C0.99 0.33 1.98 0.66 3 1 C2.34 2.65 1.68 4.3 1 6 C0.34 6 -0.32 6 -1 6 C-0.67 4.02 -0.34 2.04 0 0 Z " fill="#161616" transform="translate(222,103)"/>
</svg>
